<svg width="525" height="114" viewBox="0 0 525 114" fill="none" xmlns="http://www.w3.org/2000/svg">
<g filter="url(#filter0_d_42_2)">
<path d="M8.9141 4.39999H29.3381L45.1741 66.412H45.4701V4.39999H59.9741V108H43.2501L23.7141 32.372H23.4181V108H8.9141V4.39999ZM103.006 109.48C95.0143 109.48 88.8969 107.211 84.6543 102.672C80.4116 98.1333 78.2903 91.72 78.2903 83.432V28.968C78.2903 20.68 80.4116 14.2667 84.6543 9.72799C88.8969 5.18933 95.0143 2.91999 103.006 2.91999C110.998 2.91999 117.116 5.18933 121.358 9.72799C125.601 14.2667 127.722 20.68 127.722 28.968V83.432C127.722 91.72 125.601 98.1333 121.358 102.672C117.116 107.211 110.998 109.48 103.006 109.48ZM103.006 94.68C108.63 94.68 111.442 91.276 111.442 84.468V27.932C111.442 21.124 108.63 17.72 103.006 17.72C97.3823 17.72 94.5703 21.124 94.5703 27.932V84.468C94.5703 91.276 97.3823 94.68 103.006 94.68ZM141.551 4.39999H157.979L168.635 84.764H168.931L179.587 4.39999H194.535L178.847 108H157.239L141.551 4.39999ZM232.998 109.48C225.006 109.48 218.888 107.211 214.646 102.672C210.403 98.1333 208.282 91.72 208.282 83.432V28.968C208.282 20.68 210.403 14.2667 214.646 9.72799C218.888 5.18933 225.006 2.91999 232.998 2.91999C240.99 2.91999 247.107 5.18933 251.35 9.72799C255.592 14.2667 257.714 20.68 257.714 28.968V83.432C257.714 91.72 255.592 98.1333 251.35 102.672C247.107 107.211 240.99 109.48 232.998 109.48ZM232.998 94.68C238.622 94.68 241.434 91.276 241.434 84.468V27.932C241.434 21.124 238.622 17.72 232.998 17.72C227.374 17.72 224.562 21.124 224.562 27.932V84.468C224.562 91.276 227.374 94.68 232.998 94.68ZM288.273 19.2H271.253V4.39999H321.573V19.2H304.553V108H288.273V19.2ZM336.856 4.39999H353.136V46.58H370.6V4.39999H386.88V108H370.6V61.38H353.136V108H336.856V4.39999ZM429.936 109.48C421.944 109.48 415.827 107.211 411.584 102.672C407.341 98.1333 405.22 91.72 405.22 83.432V28.968C405.22 20.68 407.341 14.2667 411.584 9.72799C415.827 5.18933 421.944 2.91999 429.936 2.91999C437.928 2.91999 444.045 5.18933 448.288 9.72799C452.531 14.2667 454.652 20.68 454.652 28.968V83.432C454.652 91.72 452.531 98.1333 448.288 102.672C444.045 107.211 437.928 109.48 429.936 109.48ZM429.936 94.68C435.56 94.68 438.372 91.276 438.372 84.468V27.932C438.372 21.124 435.56 17.72 429.936 17.72C424.312 17.72 421.5 21.124 421.5 27.932V84.468C421.5 91.276 424.312 94.68 429.936 94.68ZM473.062 4.39999H493.486L509.322 66.412H509.618V4.39999H524.122V108H507.398L487.862 32.372H487.566V108H473.062V4.39999Z" fill="black"/>
</g>
<path d="M0.712745 1.71573H21.1367L36.9727 63.7277H37.2687V1.71573H51.7727V105.316H35.0487L15.5127 29.6877H15.2167V105.316H0.712745V1.71573ZM133.35 1.71573H149.778L160.434 82.0797H160.73L171.386 1.71573H186.334L170.646 105.316H149.038L133.35 1.71573ZM280.072 16.5157H263.052V1.71573H313.372V16.5157H296.352V105.316H280.072V16.5157ZM328.654 1.71573H344.934V43.8957H362.398V1.71573H378.678V105.316H362.398V58.6957H344.934V105.316H328.654V1.71573ZM421.735 106.796C413.743 106.796 407.625 104.526 403.383 99.9877C399.14 95.4491 397.019 89.0357 397.019 80.7477V26.2837C397.019 17.9957 399.14 11.5824 403.383 7.04373C407.625 2.50506 413.743 0.235729 421.735 0.235729C429.727 0.235729 435.844 2.50506 440.087 7.04373C444.329 11.5824 446.451 17.9957 446.451 26.2837V80.7477C446.451 89.0357 444.329 95.4491 440.087 99.9877C435.844 104.526 429.727 106.796 421.735 106.796ZM421.735 91.9957C427.359 91.9957 430.171 88.5917 430.171 81.7837V25.2477C430.171 18.4397 427.359 15.0357 421.735 15.0357C416.111 15.0357 413.299 18.4397 413.299 25.2477V81.7837C413.299 88.5917 416.111 91.9957 421.735 91.9957ZM464.86 1.71573H485.284L501.12 63.7277H501.416V1.71573H515.92V105.316H499.196L479.66 29.6877H479.364V105.316H464.86V1.71573Z" fill="#4437FB"/>
<path d="M94.8049 106.796C86.8129 106.796 80.6956 104.526 76.4529 99.9877C72.2102 95.4491 70.0889 89.0357 70.0889 80.7477V26.2837C70.0889 17.9957 72.2102 11.5824 76.4529 7.04373C80.6956 2.50506 86.8129 0.235729 94.8049 0.235729C102.797 0.235729 108.914 2.50506 113.157 7.04373C117.4 11.5824 119.521 17.9957 119.521 26.2837V80.7477C119.521 89.0357 117.4 95.4491 113.157 99.9877C108.914 104.526 102.797 106.796 94.8049 106.796ZM94.8049 91.9957C100.429 91.9957 103.241 88.5917 103.241 81.7837V25.2477C103.241 18.4397 100.429 15.0357 94.8049 15.0357C89.1809 15.0357 86.3689 18.4397 86.3689 25.2477V81.7837C86.3689 88.5917 89.1809 91.9957 94.8049 91.9957ZM224.796 106.796C216.804 106.796 210.687 104.526 206.444 99.9877C202.202 95.4491 200.08 89.0357 200.08 80.7477V26.2837C200.08 17.9957 202.202 11.5824 206.444 7.04373C210.687 2.50506 216.804 0.235729 224.796 0.235729C232.788 0.235729 238.906 2.50506 243.148 7.04373C247.391 11.5824 249.512 17.9957 249.512 26.2837V80.7477C249.512 89.0357 247.391 95.4491 243.148 99.9877C238.906 104.526 232.788 106.796 224.796 106.796ZM224.796 91.9957C230.42 91.9957 233.232 88.5917 233.232 81.7837V25.2477C233.232 18.4397 230.42 15.0357 224.796 15.0357C219.172 15.0357 216.36 18.4397 216.36 25.2477V81.7837C216.36 88.5917 219.172 91.9957 224.796 91.9957Z" fill="#4437FB"/>
<path d="M232.542 10H211.699L207 17V32.5V77L210.5 83.5M227.332 11.915H213.188L209 17.6602V76.5L211.5 81.5M235.5 13L242.5 19.5L241.888 77.9839L245 83.5V89.5L240.5 95H236H226M235 15.5L239.986 20V77.9839L243 83.5V89L239.986 93H232.5" stroke="#A8A7AB" stroke-linecap="round" stroke-linejoin="round"/>
<path d="M70.0671 63H86.3715V64H70.0671L70.0671 63Z" fill="#A8A7AB"/>
<path d="M70.1151 67H86.3241V68H70.1151V67Z" fill="#A8A7AB"/>
<path d="M70.0709 69H86.3849V70H70.0709V69Z" fill="#A8A7AB"/>
<path d="M70.0709 73H86.3849V74H70.0709V73Z" fill="#A8A7AB"/>
<path d="M70.0709 71H86.3849V72H70.0709V71Z" fill="#A8A7AB"/>
<path d="M70.0859 75H86.3736V76H70.0859V75Z" fill="#A8A7AB"/>
<path d="M70.0859 77H86.3736V78H70.0859L70.0859 77Z" fill="#A8A7AB"/>
<path d="M70.0859 81H86.3736V82H70.1074L70.0859 81Z" fill="#A8A7AB"/>
<path d="M70.0859 79H86.3736V80H70.0859V79Z" fill="#A8A7AB"/>
<path d="M70.132 83H86.3909L86.5 84H70.209L70.132 83Z" fill="#A8A7AB"/>
<path d="M70.2859 85H86.6073L86.8285 86H70.4061L70.2859 85Z" fill="#A8A7AB"/>
<path d="M70.9159 89H88.1461L89 90H71.1659L70.9159 89Z" fill="#A8A7AB"/>
<path d="M70.5456 87H87.1315L87.545 88H70.7235L70.5456 87Z" fill="#A8A7AB"/>
<path d="M71.4332 91H90.3553C90.3553 91 91.0412 91.3344 91.5 91.5C92.2986 91.7882 93.6158 92 93.6158 92H71.7606L71.4332 91Z" fill="#A8A7AB"/>
<path d="M72.1172 93H117.5L117.07 94H72.5352L72.1172 93Z" fill="#A8A7AB"/>
<path d="M73 95H116.614L116.077 96H73.5468L73 95Z" fill="#A8A7AB"/>
<path d="M70.0709 69H86.3849V70H70.0709V69Z" fill="#A8A7AB"/>
<path d="M70.0709 69H86.3849V70H70.0709V69Z" fill="#A8A7AB"/>
<path d="M74.1194 97H115.5L114.789 98H74.8248L74.1194 97Z" fill="#A8A7AB"/>
<path d="M70.08 65H86.3659V66H70.08L70.08 65Z" fill="#A8A7AB"/>
<path d="M103.242 64.9999L119.523 64.9999V65.9999H103.242V64.9999Z" fill="#A8A7AB"/>
<path d="M103.242 64.9999L119.523 64.9999V65.9999H103.242V64.9999Z" fill="#A8A7AB"/>
<path d="M103.242 66.9999L119.523 66.9999V67.9999H103.242V66.9999Z" fill="#A8A7AB"/>
<path d="M103.242 68.9999L119.523 68.9999V69.9999H103.242V68.9999Z" fill="#A8A7AB"/>
<path d="M103.242 70.9999L119.523 70.9999V71.9999H103.242V70.9999Z" fill="#A8A7AB"/>
<path d="M103.242 72.9999L119.523 72.9999V73.9999H103.242V72.9999Z" fill="#A8A7AB"/>
<path d="M103.242 74.9999L119.523 74.9999V75.9999H103.242V74.9999Z" fill="#A8A7AB"/>
<path d="M103.242 76.9999L119.523 76.9999V77.9999H103.242V76.9999Z" fill="#A8A7AB"/>
<path d="M103.242 78.9999L119.523 78.9999V79.9999H103.242V78.9999Z" fill="#A8A7AB"/>
<path d="M103.227 81H119.5V82H103.227L103.227 81Z" fill="#A8A7AB"/>
<path d="M103.204 83H119.473L119.405 84H103.136L103.204 83Z" fill="#A8A7AB"/>
<path d="M102.974 85H119.326L119.202 86H102.777L102.974 85Z" fill="#A8A7AB"/>
<path d="M102.5 87H119.073L118.887 88H102.054L102.5 87Z" fill="#A8A7AB"/>
<path d="M101.463 89H118.686L118.463 90H100.613L101.463 89Z" fill="#A8A7AB"/>
<path d="M99.2149 91H118.172L117.849 92H97L99.2149 91Z" fill="#A8A7AB"/>
<path d="M433 94V16.2759L427 8H424M435 92.5V16.2759L429.5 9M437 90.5V16.2759L439 13.3793M405 23V15.5L408 11.4483H416.571M416.571 13.3793H409.238L407.143 16.2759V22.5" stroke="#A8A7AB" stroke-linecap="round" stroke-linejoin="round"/>
<circle cx="424" cy="8" r="1" fill="#F8C53E"/>
<circle cx="422.5" cy="5.5" r="0.5" fill="#F5B136"/>
<path d="M440 13C440 13.5523 439.552 14 439 14C438.448 14 438 13.5523 438 13C438 12.4477 438.448 12 439 12C439.552 12 440 12.4477 440 13Z" fill="#F8C53E"/>
<circle cx="0.5" cy="0.5" r="0.5" transform="matrix(1 0 0 -1 437 11)" fill="#F5B136"/>
<path d="M403.805 44.6298C403.805 44.8671 403.569 45.0595 403.278 45.0595C402.986 45.0595 402.75 44.8671 402.75 44.6298C402.75 44.3924 402.986 44.2 403.278 44.2C403.569 44.2 403.805 44.3924 403.805 44.6298Z" fill="#F5B136"/>
<path d="M403.796 51.0764C403.796 50.8002 403.572 50.5764 403.296 50.5764C403.019 50.5764 402.796 50.8002 402.796 51.0764H403.296H403.796ZM403.296 84.3335H402.796V84.5774L402.988 84.7275L403.296 84.3335ZM409.404 89.1058H409.904V88.862L409.712 88.7118L409.404 89.1058ZM408.904 101.5C408.904 101.776 409.128 102 409.404 102C409.68 102 409.904 101.776 409.904 101.5H409.404H408.904ZM406.086 83.1558H405.586C405.586 83.308 405.655 83.4518 405.774 83.5467L406.086 83.1558ZM412.205 88.037H412.705V87.7963L412.517 87.6461L412.205 88.037ZM411.705 97.5C411.705 97.7761 411.929 98 412.205 98C412.481 98 412.705 97.7761 412.705 97.5H412.205H411.705ZM406.586 48.3058C406.586 48.0297 406.362 47.8058 406.086 47.8058C405.81 47.8058 405.586 48.0297 405.586 48.3058H406.086H406.586ZM403.296 51.0764H402.796V84.3335H403.296H403.796V51.0764H403.296ZM403.296 84.3335L402.988 84.7275L409.096 89.4998L409.404 89.1058L409.712 88.7118L403.603 83.9395L403.296 84.3335ZM409.404 89.1058H408.904V101.5H409.404H409.904V89.1058H409.404ZM406.086 83.1558L405.774 83.5467L411.893 88.4279L412.205 88.037L412.517 87.6461L406.398 82.765L406.086 83.1558ZM412.205 88.037H411.705V97.5H412.205H412.705V88.037H412.205ZM406.086 48.3058H405.586V66.1367H406.086H406.586V48.3058H406.086ZM406.086 66.1367H405.586V83.1558H406.086H406.586V66.1367H406.086Z" fill="#A8A7AB"/>
<path d="M404.635 49.8253C404.635 50.5374 404.169 51.0978 403.296 51.0978C402.422 51.0978 402 50.5374 402 49.8253C402 49.1132 402.422 48.5192 403.296 48.5192C404.169 48.5192 404.635 49.1132 404.635 49.8253Z" fill="#F5B136"/>
<path d="M407.458 47.487C407.458 48.1991 406.992 48.7595 406.118 48.7595C405.245 48.7595 404.823 48.1991 404.823 47.487C404.823 46.7749 405.245 46.1808 406.118 46.1808C406.992 46.1808 407.458 46.7749 407.458 47.487Z" fill="#F5B136"/>
<path d="M75.5 99H114L113.119 100H76.5L75.5 99Z" fill="#A8A7AB"/>
<path d="M77.5 101H112.169L110.949 102H78.6342L77.5 101Z" fill="#A8A7AB"/>
<path d="M80 103H109.529L107.852 104H81.6941L80 103Z" fill="#A8A7AB"/>
<path d="M84 105H105.653L102.382 106H87.2659L84 105Z" fill="#A8A7AB"/>
<defs>
<filter id="filter0_d_42_2" x="8.9141" y="2.92" width="515.208" height="110.56" filterUnits="userSpaceOnUse" color-interpolation-filters="sRGB">
<feFlood flood-opacity="0" result="BackgroundImageFix"/>
<feColorMatrix in="SourceAlpha" type="matrix" values="0 0 0 0 0 0 0 0 0 0 0 0 0 0 0 0 0 0 127 0" result="hardAlpha"/>
<feOffset dy="4"/>
<feComposite in2="hardAlpha" operator="out"/>
<feColorMatrix type="matrix" values="0 0 0 0 0 0 0 0 0 0 0 0 0 0 0 0 0 0 0.25 0"/>
<feBlend mode="normal" in2="BackgroundImageFix" result="effect1_dropShadow_42_2"/>
<feBlend mode="normal" in="SourceGraphic" in2="effect1_dropShadow_42_2" result="shape"/>
</filter>
</defs>
</svg>
